ply
format ascii 1.0
comment Created by Open Asset Import Library - http://assimp.sf.net (v5.2.0)
comment TextureFile ../materials/textures/cinder_block_diffuse.png
element vertex 252
property float x
property float y
property float z
property float nx
property float ny
property float nz
property float s
property float t
element face 84
property list uchar int vertex_index
end_header
0.0141661381 0 -0.0676249564 0 -1 0 0.338217914 0.531567574
0.0141661381 0 0.0676249564 0 -1 0 0.0728234872 0.531567514
-0.0141661381 0 0.0676249564 0 -1 0 0.0728234872 0.46690011
-0.0141661381 0 0.0676249564 0 -1 0 0.0728234872 0.46690011
-0.0141661381 0 -0.0676249564 0 -1 0 0.338218004 0.4669002
0.0141661381 0 -0.0676249564 0 -1 0 0.338217914 0.531567574
-0.0141661381 0.203199998 -0.0676249564 0 1 0 0.338218004 0.531567514
-0.0141661381 0.203199998 0.0676249564 0 1 0 0.0728234872 0.531567574
0.0141661381 0.203199998 0.0676249564 0 1 0 0.0728234872 0.4669002
0.0141661381 0.203199998 0.0676249564 0 1 0 0.0728234872 0.4669002
0.0141661381 0.203199998 -0.0676249564 0 1 0 0.338217914 0.46690011
-0.0141661381 0.203199998 -0.0676249564 0 1 0 0.338218004 0.531567514
0.203199998 0 -0.0676249564 1 0 0 0.002545333 0.170204803
0.203199998 0.203199998 -0.0676249564 1 0 0 0.733807385 0.170204803
0.203199998 0.203199998 0.0676249564 1 0 0 0.733807087 0.832117081
0.203199998 0.203199998 0.0676249564 1 0 0 0.733807087 0.832117081
0.203199998 0 0.0676249564 1 0 0 0.00254524709 0.832117081
0.203199998 0 -0.0676249564 1 0 0 0.002545333 0.170204803
-0.203199998 0 0.0676249564 -1 0 0 0.002545333 0.170204803
-0.203199998 0.203199998 0.0676249564 -1 0 0 0.733807385 0.170204803
-0.203199998 0.203199998 -0.0676249564 -1 0 0 0.733807087 0.832117081
-0.203199998 0.203199998 -0.0676249564 -1 0 0 0.733807087 0.832117081
-0.203199998 0 -0.0676249564 -1 0 0 0.00254524709 0.832117081
-0.203199998 0 0.0676249564 -1 0 0 0.002545333 0.170204803
0.217424005 0 -0.101599999 0 -1 0 0.404885411 0.995496213
0.169858888 0 -0.0676249564 0 -1 0 0.338217914 0.886930585
0.0141661381 0 -0.0676249564 0 -1 0 0.338217914 0.531567574
-0.217424005 0 0.101599999 0 -1 0 0.00615606178 0.00297146291
-0.169858888 0 0.0676249564 0 -1 0 0.0728236064 0.111537099
-0.0141661381 0 0.0676249564 0 -1 0 0.0728234872 0.46690011
-0.0141661381 0.203199998 -0.0676249564 0 1 0 0.338218004 0.531567514
0.0141661381 0.203199998 -0.0676249564 0 1 0 0.338217914 0.46690011
0.217424005 0.203199998 -0.101599999 0 1 0 0.404885501 0.00297146291
0.217424005 0.203199998 -0.101599999 0 1 0 0.404885501 0.00297146291
-0.217424005 0.203199998 -0.101599999 0 1 0 0.40488559 0.995496094
-0.0141661381 0.203199998 -0.0676249564 0 1 0 0.338218004 0.531567514
0.0141661381 0.203199998 0.0676249564 0 1 0 0.0728234872 0.4669002
-0.0141661381 0.203199998 0.0676249564 0 1 0 0.0728234872 0.531567574
-0.217424005 0.203199998 0.101599999 0 1 0 0.00615596678 0.995496213
-0.217424005 0.203199998 0.101599999 0 1 0 0.00615596678 0.995496213
0.217424005 0.203199998 0.101599999 0 1 0 0.00615584105 0.00297158398
0.0141661381 0.203199998 0.0676249564 0 1 0 0.0728234872 0.4669002
0.217424005 0 -0.101599999 1 0 0 0.002545333 0.0039311829
0.217424005 0.203199998 -0.101599999 1 0 0 0.733807385 0.0039313212
0.217424005 0.203199998 -0.0676249564 1 0 0 0.733807385 0.170204893
0.217424005 0.203199998 -0.0676249564 1 0 0 0.733807385 0.170204893
0.217424005 0 -0.0676249564 1 0 0 0.002545333 0.170204803
0.217424005 0 -0.101599999 1 0 0 0.002545333 0.0039311829
0.217424005 0.203199998 0.101599999 1 0 0 0.733807087 0.998390913
0.217424005 0 0.101599999 1 0 0 0.00254516094 0.998390913
0.217424005 0 0.0676249564 1 0 0 0.00254524709 0.832117081
0.217424005 0 0.0676249564 1 0 0 0.00254524709 0.832117081
0.217424005 0.203199998 0.0676249564 1 0 0 0.733807087 0.832117081
0.217424005 0.203199998 0.101599999 1 0 0 0.733807087 0.998390913
-0.217424005 0 0.101599999 -1 0 0 0.002545333 0.0039311829
-0.217424005 0.203199998 0.101599999 -1 0 0 0.733807385 0.0039313212
-0.217424005 0.203199998 0.0676249564 -1 0 0 0.733807385 0.170204893
-0.217424005 0.203199998 0.0676249564 -1 0 0 0.733807385 0.170204893
-0.217424005 0 0.0676249564 -1 0 0 0.002545333 0.170204803
-0.217424005 0 0.101599999 -1 0 0 0.002545333 0.0039311829
-0.217424005 0.203199998 -0.101599999 -1 0 0 0.733807087 0.998390913
-0.217424005 0 -0.101599999 -1 0 0 0.00254516094 0.998390913
-0.217424005 0 -0.0676249564 -1 0 0 0.00254524709 0.832117081
-0.217424005 0 -0.0676249564 -1 0 0 0.00254524709 0.832117081
-0.217424005 0.203199998 -0.0676249564 -1 0 0 0.733807087 0.832117081
-0.217424005 0.203199998 -0.101599999 -1 0 0 0.733807087 0.998390913
0.203199998 0 -0.0676249564 0 -1 0 0.338217914 0.963030517
0.203199998 0 0.0676249564 0 -1 0 0.0728233606 0.963030398
0.169858888 0 0.0676249564 0 -1 0 0.0728233606 0.886930525
0.169858888 0 0.0676249564 0 -1 0 0.0728233606 0.886930525
0.169858888 0 -0.0676249564 0 -1 0 0.338217914 0.886930585
0.203199998 0 -0.0676249564 0 -1 0 0.338217914 0.963030517
-0.203199998 0 0.0676249564 0 -1 0 0.0728236064 0.0354372896
-0.203199998 0 -0.0676249564 0 -1 0 0.338218093 0.0354373902
-0.169858888 0 -0.0676249564 0 -1 0 0.338218093 0.111537203
-0.169858888 0 -0.0676249564 0 -1 0 0.338218093 0.111537203
-0.169858888 0 0.0676249564 0 -1 0 0.0728236064 0.111537099
-0.203199998 0 0.0676249564 0 -1 0 0.0728236064 0.0354372896
-0.203199998 0.203199998 -0.0676249564 0 1 0 0.338218093 0.963030517
-0.203199998 0.203199998 0.0676249564 0 1 0 0.0728235468 0.963030517
-0.169858888 0.203199998 0.0676249564 0 1 0 0.072823517 0.886930585
-0.169858888 0.203199998 0.0676249564 0 1 0 0.072823517 0.886930585
-0.169858888 0.203199998 -0.0676249564 0 1 0 0.338218093 0.886930525
-0.203199998 0.203199998 -0.0676249564 0 1 0 0.338218093 0.963030517
0.203199998 0.203199998 0.0676249564 0 1 0 0.0728234202 0.0354373902
0.203199998 0.203199998 -0.0676249564 0 1 0 0.338217914 0.0354372896
0.169858888 0.203199998 -0.0676249564 0 1 0 0.338217914 0.111537099
0.169858888 0.203199998 -0.0676249564 0 1 0 0.338217914 0.111537099
0.169858888 0.203199998 0.0676249564 0 1 0 0.0728234202 0.111537203
0.203199998 0.203199998 0.0676249564 0 1 0 0.0728234202 0.0354373902
-0.217424005 0.203199998 0.101599999 0 0 1 0.733807087 0.998390913
-0.217424005 0 0.101599999 0 0 1 0.00254516094 0.998390913
0.217424005 0 0.101599999 0 0 1 0.002545333 0.00393074378
0.217424005 0 0.101599999 0 0 1 0.002545333 0.00393074378
0.217424005 0.203199998 0.101599999 0 0 1 0.733807385 0.00393081782
-0.217424005 0.203199998 0.101599999 0 0 1 0.733807087 0.998390913
0.217424005 0.203199998 -0.101599999 0 0 -1 0.733807087 0.998390913
0.217424005 0 -0.101599999 0 0 -1 0.00254516094 0.998390913
-0.217424005 0 -0.101599999 0 0 -1 0.002545333 0.00393074378
-0.217424005 0 -0.101599999 0 0 -1 0.002545333 0.00393074378
-0.217424005 0.203199998 -0.101599999 0 0 -1 0.733807385 0.00393081782
0.217424005 0.203199998 -0.101599999 0 0 -1 0.733807087 0.998390913
0.217424005 0 -0.101599999 0 -1 0 0.404885411 0.995496213
0.203199998 0 -0.0676249564 0 -1 0 0.338217914 0.963030517
0.169858888 0 -0.0676249564 0 -1 0 0.338217914 0.886930585
-0.169858888 0 -0.0676249564 0 -1 0 0.338218093 0.111537203
-0.203199998 0 -0.0676249564 0 -1 0 0.338218093 0.0354373902
-0.217424005 0 -0.101599999 0 -1 0 0.404885799 0.00297158398
-0.0141661381 0 -0.0676249564 0 -1 0 0.338218004 0.4669002
-0.169858888 0 -0.0676249564 0 -1 0 0.338218093 0.111537203
-0.217424005 0 -0.101599999 0 -1 0 0.404885799 0.00297158398
-0.217424005 0 0.101599999 0 -1 0 0.00615606178 0.00297146291
-0.203199998 0 0.0676249564 0 -1 0 0.0728236064 0.0354372896
-0.169858888 0 0.0676249564 0 -1 0 0.0728236064 0.111537099
0.169858888 0 0.0676249564 0 -1 0 0.0728233606 0.886930525
0.203199998 0 0.0676249564 0 -1 0 0.0728233606 0.963030398
0.217424005 0 0.101599999 0 -1 0 0.00615574885 0.995496094
0.0141661381 0 0.0676249564 0 -1 0 0.0728234872 0.531567514
0.169858888 0 0.0676249564 0 -1 0 0.0728233606 0.886930525
0.217424005 0 0.101599999 0 -1 0 0.00615574885 0.995496094
-0.217424005 0.203199998 -0.101599999 0 1 0 0.40488559 0.995496094
-0.203199998 0.203199998 -0.0676249564 0 1 0 0.338218093 0.963030517
-0.169858888 0.203199998 -0.0676249564 0 1 0 0.338218093 0.886930525
-0.217424005 0.203199998 -0.101599999 0 1 0 0.40488559 0.995496094
-0.169858888 0.203199998 -0.0676249564 0 1 0 0.338218093 0.886930525
-0.0141661381 0.203199998 -0.0676249564 0 1 0 0.338218004 0.531567514
0.169858888 0.203199998 -0.0676249564 0 1 0 0.338217914 0.111537099
0.203199998 0.203199998 -0.0676249564 0 1 0 0.338217914 0.0354372896
0.217424005 0.203199998 -0.101599999 0 1 0 0.404885501 0.00297146291
0.217424005 0.203199998 0.101599999 0 1 0 0.00615584105 0.00297158398
0.203199998 0.203199998 0.0676249564 0 1 0 0.0728234202 0.0354373902
0.169858888 0.203199998 0.0676249564 0 1 0 0.0728234202 0.111537203
0.217424005 0.203199998 0.101599999 0 1 0 0.00615584105 0.00297158398
0.169858888 0.203199998 0.0676249564 0 1 0 0.0728234202 0.111537203
0.0141661381 0.203199998 0.0676249564 0 1 0 0.0728234872 0.4669002
-0.169858888 0.203199998 0.0676249564 0 1 0 0.072823517 0.886930585
-0.203199998 0.203199998 0.0676249564 0 1 0 0.0728235468 0.963030517
-0.217424005 0.203199998 0.101599999 0 1 0 0.00615596678 0.995496213
0.203199998 0 -0.0676249564 0 -1 0 0.338217914 0.963030517
0.217424005 0 -0.101599999 0 -1 0 0.404885411 0.995496213
0.217424005 0 -0.0676249564 0 -1 0 0.338217795 0.995496213
0.217424005 0.203199998 -0.101599999 0 1 0 0.404885501 0.00297146291
0.203199998 0.203199998 -0.0676249564 0 1 0 0.338217914 0.0354372896
0.217424005 0.203199998 -0.0676249564 0 1 0 0.338217914 0.00297150901
0.203199998 0.203199998 -0.0676249564 0 2.98022975e-08 1 0.733807385 0.0364599116
0.203199998 0 -0.0676249564 0 2.98022975e-08 1 0.002545333 0.0364597701
0.217424005 0 -0.0676249564 0 2.98022975e-08 1 0.002545333 0.00393074378
0.217424005 0 -0.0676249564 0 2.98022975e-08 1 0.002545333 0.00393074378
0.217424005 0.203199998 -0.0676249564 0 2.98022975e-08 1 0.733807385 0.00393081782
0.203199998 0.203199998 -0.0676249564 0 2.98022975e-08 1 0.733807385 0.0364599116
0.203199998 0.203199998 0.0676249564 0 1 0 0.0728234202 0.0354373902
0.217424005 0.203199998 0.101599999 0 1 0 0.00615584105 0.00297158398
0.217424005 0.203199998 0.0676249564 0 1 0 0.0728234202 0.00297158398
0.217424005 0 0.101599999 0 -1 0 0.00615574885 0.995496094
0.203199998 0 0.0676249564 0 -1 0 0.0728233606 0.963030398
0.217424005 0 0.0676249564 0 -1 0 0.0728233233 0.995496094
0.203199998 0 0.0676249564 0 -2.98022975e-08 -1 0.00254516094 0.965861619
0.203199998 0.203199998 0.0676249564 0 -2.98022975e-08 -1 0.733807087 0.965861619
0.217424005 0.203199998 0.0676249564 0 -2.98022975e-08 -1 0.733807087 0.998390675
0.217424005 0.203199998 0.0676249564 0 -2.98022975e-08 -1 0.733807087 0.998390675
0.217424005 0 0.0676249564 0 -2.98022975e-08 -1 0.00254516094 0.998390675
0.203199998 0 0.0676249564 0 -2.98022975e-08 -1 0.00254516094 0.965861619
-0.203199998 0 0.0676249564 0 -1 0 0.0728236064 0.0354372896
-0.217424005 0 0.101599999 0 -1 0 0.00615606178 0.00297146291
-0.217424005 0 0.0676249564 0 -1 0 0.0728236437 0.00297150901
-0.217424005 0.203199998 0.101599999 0 1 0 0.00615596678 0.995496213
-0.203199998 0.203199998 0.0676249564 0 1 0 0.0728235468 0.963030517
-0.217424005 0.203199998 0.0676249564 0 1 0 0.0728235468 0.995496213
-0.203199998 0.203199998 0.0676249564 0 2.98022975e-08 -1 0.733807385 0.0364599116
-0.203199998 0 0.0676249564 0 2.98022975e-08 -1 0.002545333 0.0364597701
-0.217424005 0 0.0676249564 0 2.98022975e-08 -1 0.002545333 0.00393074378
-0.217424005 0 0.0676249564 0 2.98022975e-08 -1 0.002545333 0.00393074378
-0.217424005 0.203199998 0.0676249564 0 2.98022975e-08 -1 0.733807385 0.00393081782
-0.203199998 0.203199998 0.0676249564 0 2.98022975e-08 -1 0.733807385 0.0364599116
-0.203199998 0.203199998 -0.0676249564 0 1 0 0.338218093 0.963030517
-0.217424005 0.203199998 -0.101599999 0 1 0 0.40488559 0.995496094
-0.217424005 0.203199998 -0.0676249564 0 1 0 0.338218093 0.995496094
-0.217424005 0 -0.101599999 0 -1 0 0.404885799 0.00297158398
-0.203199998 0 -0.0676249564 0 -1 0 0.338218093 0.0354373902
-0.217424005 0 -0.0676249564 0 -1 0 0.338218212 0.00297158398
-0.203199998 0 -0.0676249564 0 -2.98022975e-08 1 0.00254516094 0.965861619
-0.203199998 0.203199998 -0.0676249564 0 -2.98022975e-08 1 0.733807087 0.965861619
-0.217424005 0.203199998 -0.0676249564 0 -2.98022975e-08 1 0.733807087 0.998390675
-0.217424005 0.203199998 -0.0676249564 0 -2.98022975e-08 1 0.733807087 0.998390675
-0.217424005 0 -0.0676249564 0 -2.98022975e-08 1 0.00254516094 0.998390675
-0.203199998 0 -0.0676249564 0 -2.98022975e-08 1 0.00254516094 0.965861619
0.0141661381 0 -0.0676249564 0 0 1 0.00254524709 0.468763888
0.169858888 0 -0.0676249564 0 0 1 0.002545333 0.112708002
0.169858888 0.203199998 -0.0676249564 0 0 1 0.733807385 0.112708099
0.169858888 0.203199998 -0.0676249564 0 0 1 0.733807385 0.112708099
0.0141661381 0.203199998 -0.0676249564 0 0 1 0.733807385 0.468764096
0.0141661381 0 -0.0676249564 0 0 1 0.00254524709 0.468763888
0.169858888 0 -0.0676249564 -1 0 0 0.00254524709 0.832116723
0.169858888 0 0.0676249564 -1 0 0 0.002545333 0.170204297
0.169858888 0.203199998 0.0676249564 -1 0 0 0.733807385 0.170204401
0.169858888 0.203199998 0.0676249564 -1 0 0 0.733807385 0.170204401
0.169858888 0.203199998 -0.0676249564 -1 0 0 0.733807087 0.832116723
0.169858888 0 -0.0676249564 -1 0 0 0.00254524709 0.832116723
0.169858888 0 0.0676249564 0 0 -1 0.00254524709 0.889613271
0.0141661381 0 0.0676249564 0 0 -1 0.00254524709 0.533557475
0.0141661381 0.203199998 0.0676249564 0 0 -1 0.733807385 0.533557475
0.0141661381 0.203199998 0.0676249564 0 0 -1 0.733807385 0.533557475
0.169858888 0.203199998 0.0676249564 0 0 -1 0.733807087 0.889613271
0.169858888 0 0.0676249564 0 0 -1 0.00254524709 0.889613271
0.0141661381 0 0.0676249564 1 0 0 0.00254524709 0.832117021
0.0141661381 0 -0.0676249564 1 0 0 0.002545333 0.170204595
0.0141661381 0.203199998 -0.0676249564 1 0 0 0.733807385 0.170204699
0.0141661381 0.203199998 -0.0676249564 1 0 0 0.733807385 0.170204699
0.0141661381 0.203199998 0.0676249564 1 0 0 0.733807087 0.832117021
0.0141661381 0 0.0676249564 1 0 0 0.00254524709 0.832117021
-0.169858888 0 -0.0676249564 0 -5.96046057e-08 1 0.00254524709 0.889613271
-0.0141661381 0 -0.0676249564 0 -5.96046057e-08 1 0.00254524709 0.533557475
-0.0141661381 0.203199998 -0.0676249564 0 -5.96046057e-08 1 0.733807385 0.533557475
-0.0141661381 0.203199998 -0.0676249564 0 -5.96046057e-08 1 0.733807385 0.533557475
-0.169858888 0.203199998 -0.0676249564 0 -5.96046057e-08 1 0.733807087 0.889613271
-0.169858888 0 -0.0676249564 0 -5.96046057e-08 1 0.00254524709 0.889613271
-0.0141661381 0 -0.0676249564 -1 0 0 0.00254524709 0.832117021
-0.0141661381 0 0.0676249564 -1 0 0 0.002545333 0.170204595
-0.0141661381 0.203199998 0.0676249564 -1 0 0 0.733807385 0.170204505
-0.0141661381 0.203199998 0.0676249564 -1 0 0 0.733807385 0.170204505
-0.0141661381 0.203199998 -0.0676249564 -1 0 0 0.733807087 0.832117021
-0.0141661381 0 -0.0676249564 -1 0 0 0.00254524709 0.832117021
-0.0141661381 0 0.0676249564 0 5.96046057e-08 -1 0.00254524709 0.468763888
-0.169858888 0 0.0676249564 0 5.96046057e-08 -1 0.002545333 0.112708002
-0.169858888 0.203199998 0.0676249564 0 5.96046057e-08 -1 0.733807385 0.112708099
-0.169858888 0.203199998 0.0676249564 0 5.96046057e-08 -1 0.733807385 0.112708099
-0.0141661381 0.203199998 0.0676249564 0 5.96046057e-08 -1 0.733807385 0.468764096
-0.0141661381 0 0.0676249564 0 5.96046057e-08 -1 0.00254524709 0.468763888
-0.169858888 0 0.0676249564 1 0 0 0.00254524709 0.832116723
-0.169858888 0 -0.0676249564 1 0 0 0.002545333 0.170204297
-0.169858888 0.203199998 -0.0676249564 1 0 0 0.733807385 0.170204505
-0.169858888 0.203199998 -0.0676249564 1 0 0 0.733807385 0.170204505
-0.169858888 0.203199998 0.0676249564 1 0 0 0.733807087 0.832116723
-0.169858888 0 0.0676249564 1 0 0 0.00254524709 0.832116723
-0.217424005 0 -0.101599999 0 -1 0 0.404885799 0.00297158398
0.217424005 0 -0.101599999 0 -1 0 0.404885411 0.995496213
0.0141661381 0 -0.0676249564 0 -1 0 0.338217914 0.531567574
0.0141661381 0 -0.0676249564 0 -1 0 0.338217914 0.531567574
-0.0141661381 0 -0.0676249564 0 -1 0 0.338218004 0.4669002
-0.217424005 0 -0.101599999 0 -1 0 0.404885799 0.00297158398
0.217424005 0 0.101599999 0 -1 0 0.00615574885 0.995496094
-0.217424005 0 0.101599999 0 -1 0 0.00615606178 0.00297146291
-0.0141661381 0 0.0676249564 0 -1 0 0.0728234872 0.46690011
-0.0141661381 0 0.0676249564 0 -1 0 0.0728234872 0.46690011
0.0141661381 0 0.0676249564 0 -1 0 0.0728234872 0.531567514
0.217424005 0 0.101599999 0 -1 0 0.00615574885 0.995496094
-0.0141661381 0.203199998 0.0676249564 0 1 0 0.0728234872 0.531567574
-0.169858888 0.203199998 0.0676249564 0 1 0 0.072823517 0.886930585
-0.217424005 0.203199998 0.101599999 0 1 0 0.00615596678 0.995496213
0.0141661381 0.203199998 -0.0676249564 0 1 0 0.338217914 0.46690011
0.169858888 0.203199998 -0.0676249564 0 1 0 0.338217914 0.111537099
0.217424005 0.203199998 -0.101599999 0 1 0 0.404885501 0.00297146291
3 0 1 2
3 3 4 5
3 6 7 8
3 9 10 11
3 12 13 14
3 15 16 17
3 18 19 20
3 21 22 23
3 24 25 26
3 27 28 29
3 30 31 32
3 33 34 35
3 36 37 38
3 39 40 41
3 42 43 44
3 45 46 47
3 48 49 50
3 51 52 53
3 54 55 56
3 57 58 59
3 60 61 62
3 63 64 65
3 66 67 68
3 69 70 71
3 72 73 74
3 75 76 77
3 78 79 80
3 81 82 83
3 84 85 86
3 87 88 89
3 90 91 92
3 93 94 95
3 96 97 98
3 99 100 101
3 102 103 104
3 105 106 107
3 108 109 110
3 111 112 113
3 114 115 116
3 117 118 119
3 120 121 122
3 123 124 125
3 126 127 128
3 129 130 131
3 132 133 134
3 135 136 137
3 138 139 140
3 141 142 143
3 144 145 146
3 147 148 149
3 150 151 152
3 153 154 155
3 156 157 158
3 159 160 161
3 162 163 164
3 165 166 167
3 168 169 170
3 171 172 173
3 174 175 176
3 177 178 179
3 180 181 182
3 183 184 185
3 186 187 188
3 189 190 191
3 192 193 194
3 195 196 197
3 198 199 200
3 201 202 203
3 204 205 206
3 207 208 209
3 210 211 212
3 213 214 215
3 216 217 218
3 219 220 221
3 222 223 224
3 225 226 227
3 228 229 230
3 231 232 233
3 234 235 236
3 237 238 239
3 240 241 242
3 243 244 245
3 246 247 248
3 249 250 251
