ply
format ascii 1.0
element vertex 360
property float x
property float y
property float z
property uchar red
property uchar green
property uchar blue
end_header
-0.0355 0.3000 1.2700 0 255 0
-0.0703 0.6000 1.3400 0 255 0
-0.1059 0.9000 1.4100 0 255 0
-0.1412 1.2000 1.4800 0 255 0
-0.1760 1.5000 1.5500 0 255 0
-0.2101 1.8000 1.6200 0 255 0
-0.2427 2.1000 1.6900 0 255 0
-0.2747 2.4000 1.7600 0 255 0
-0.3071 2.7000 1.8300 0 255 0
-0.3389 3.0000 1.9000 0 255 0
-0.3705 3.3000 1.9700 0 255 0
-0.3988 3.6000 2.0400 0 255 0
-0.4265 3.9000 2.1100 0 255 0
-0.4547 4.2000 2.1800 0 255 0
-0.4837 4.5000 2.2000 0 255 0
-0.5137 4.8000 2.1300 0 255 0
-0.5431 5.1000 2.0600 0 255 0
-0.5698 5.4000 1.9900 0 255 0
-0.5971 5.7000 1.9200 0 255 0
-0.6238 6.0000 1.8500 0 255 0
-0.6492 6.3000 1.7800 0 255 0
-0.6742 6.6000 1.7100 0 255 0
-0.6974 6.9000 1.6400 0 255 0
-0.7201 7.2000 1.5700 0 255 0
-0.7413 7.5000 1.5000 0 255 0
-0.7621 7.8000 1.4300 0 255 0
-0.7843 8.1000 1.3600 0 255 0
-0.8061 8.4000 1.2900 0 255 0
-0.8275 8.7000 1.2200 0 255 0
-0.8485 9.0000 1.1500 0 255 0
-0.8696 9.3000 1.0800 0 255 0
-0.8902 9.6000 1.0100 0 255 0
-0.9095 9.9000 0.9400 0 255 0
-0.9284 10.2000 0.8700 0 255 0
-0.9480 10.5000 0.8000 0 255 0
-0.9661 10.8000 0.8700 0 255 0
-0.9839 11.1000 0.9400 0 255 0
-1.0018 11.4000 1.0100 0 255 0
-1.0201 11.7000 1.0800 0 255 0
-1.0379 12.0000 1.1500 0 255 0
-1.0558 12.3000 1.2200 0 255 0
-1.0723 12.6000 1.2900 0 255 0
-1.0884 12.9000 1.3600 0 255 0
-1.1038 13.2000 1.4300 0 255 0
-1.1189 13.5000 1.5000 0 255 0
-1.1354 13.8000 1.5700 0 255 0
-1.1515 14.1000 1.6400 0 255 0
-1.1657 14.4000 1.7100 0 255 0
-1.1796 14.7000 1.7800 0 255 0
-1.1940 15.0000 1.8500 0 255 0
-1.2084 15.3000 1.9200 0 255 0
-1.2220 15.6000 1.9900 0 255 0
-1.2352 15.9000 2.0600 0 255 0
-1.2481 16.2000 2.1300 0 255 0
-1.2617 16.5000 2.2000 0 255 0
-1.2748 16.8000 2.1300 0 255 0
-1.2877 17.1000 2.0600 0 255 0
-1.2988 17.4000 1.9900 0 255 0
-1.3097 17.7000 1.9200 0 255 0
-1.3199 18.0000 1.8500 0 255 0
-1.3299 18.3000 1.7800 0 255 0
-1.3399 18.6000 1.7100 0 255 0
-1.3497 18.9000 1.6400 0 255 0
-1.3617 19.2000 1.5700 0 255 0
-1.3740 19.5000 1.5000 0 255 0
-1.3860 19.8000 1.4300 0 255 0
-1.3955 20.0857 1.3600 0 255 0
-1.4048 20.3713 1.2900 0 255 0
-1.4144 20.5649 1.2200 0 255 0
-1.4237 20.7585 1.1500 0 255 0
-1.4333 20.8678 1.0800 0 255 0
-1.4426 20.9772 1.0100 0 255 0
-1.3852 21.0477 0.9400 0 255 0
-1.3279 21.1182 0.8700 0 255 0
-1.2563 21.1681 0.8000 0 255 0
-1.1846 21.2181 0.8700 0 255 0
-1.0987 21.2515 0.9400 0 255 0
-1.0278 21.2887 1.0100 0 255 0
-0.9597 21.3279 1.0800 0 255 0
-0.8915 21.3672 1.1500 0 255 0
-0.8341 21.4142 1.2200 0 255 0
-0.7852 21.4679 1.2900 0 255 0
-0.7430 21.5238 1.3600 0 255 0
-0.6831 21.5857 1.4300 0 255 0
-0.6244 21.6490 1.5000 0 255 0
-0.5669 21.7199 1.5700 0 255 0
-0.5091 21.7920 1.6400 0 255 0
-0.4518 21.8715 1.7100 0 255 0
-0.3930 21.9528 1.7800 0 255 0
-0.3334 22.0354 1.8500 0 255 0
-0.2754 22.1192 1.9200 0 255 0
-0.2166 22.2054 1.9900 0 255 0
-0.1577 22.2927 2.0600 0 255 0
-0.0996 22.3801 2.1300 0 255 0
-0.0416 22.4675 2.2000 0 255 0
0.0174 22.5522 2.1300 0 255 0
0.0763 22.6370 2.0600 0 255 0
0.1348 22.7160 1.9900 0 255 0
0.1932 22.7883 1.9200 0 255 0
0.2499 22.8571 1.8500 0 255 0
0.3074 22.9198 1.7800 0 255 0
0.3754 22.9739 1.7100 0 255 0
0.4564 23.0207 1.6400 0 255 0
0.5373 23.0674 1.5700 0 255 0
0.6238 23.1059 1.5000 0 255 0
0.7191 23.1372 1.4300 0 255 0
0.8144 23.1686 1.3600 0 255 0
0.9214 23.1836 1.2900 0 255 0
1.0284 23.1986 1.2200 0 255 0
1.1376 23.2136 1.1500 0 255 0
1.2469 23.2286 1.0800 0 255 0
1.3550 23.2436 1.0100 0 255 0
1.4641 23.2586 0.9400 0 255 0
1.5731 23.2736 0.8700 0 255 0
1.6776 23.2886 0.8000 0 255 0
1.7975 23.3036 0.8700 0 255 0
1.9175 23.3186 0.9400 0 255 0
2.0292 23.3336 1.0100 0 255 0
2.1368 23.3486 1.0800 0 255 0
2.2441 23.3636 1.1500 0 255 0
2.3513 23.3786 1.2200 0 255 0
-0.5372 0.3000 1.2700 255 0 0
-0.5733 0.6000 1.3400 255 0 0
-0.6086 0.9000 1.4100 255 0 0
-0.6442 1.2000 1.4800 255 0 0
-0.6790 1.5000 1.5500 255 0 0
-0.7124 1.8000 1.6200 255 0 0
-0.7452 2.1000 1.6900 255 0 0
-0.7773 2.4000 1.7600 255 0 0
-0.8087 2.7000 1.8300 255 0 0
-0.8392 3.0000 1.9000 255 0 0
-0.8690 3.3000 1.9700 255 0 0
-0.8987 3.6000 2.0400 255 0 0
-0.9299 3.9000 2.1100 255 0 0
-0.9605 4.2000 2.1800 255 0 0
-0.9903 4.5000 2.2000 255 0 0
-1.0194 4.8000 2.1300 255 0 0
-1.0463 5.1000 2.0600 255 0 0
-1.0726 5.4000 1.9900 255 0 0
-1.1002 5.7000 1.9200 255 0 0
-1.1273 6.0000 1.8500 255 0 0
-1.1528 6.3000 1.7800 255 0 0
-1.1777 6.6000 1.7100 255 0 0
-1.2021 6.9000 1.6400 255 0 0
-1.2277 7.2000 1.5700 255 0 0
-1.2528 7.5000 1.5000 255 0 0
-1.2767 7.8000 1.4300 255 0 0
-1.2992 8.1000 1.3600 255 0 0
-1.3212 8.4000 1.2900 255 0 0
-1.3415 8.7000 1.2200 255 0 0
-1.3614 9.0000 1.1500 255 0 0
-1.3817 9.3000 1.0800 255 0 0
-1.4016 9.6000 1.0100 255 0 0
-1.4215 9.9000 0.9400 255 0 0
-1.4417 10.2000 0.8700 255 0 0
-1.4615 10.5000 0.8000 255 0 0
-1.4799 10.8000 0.8700 255 0 0
-1.4980 11.1000 0.9400 255 0 0
-1.5160 11.4000 1.0100 255 0 0
-1.5336 11.7000 1.0800 255 0 0
-1.5509 12.0000 1.1500 255 0 0
-1.5680 12.3000 1.2200 255 0 0
-1.5841 12.6000 1.2900 255 0 0
-1.5998 12.9000 1.3600 255 0 0
-1.6163 13.2000 1.4300 255 0 0
-1.6325 13.5000 1.5000 255 0 0
-1.6469 13.8000 1.5700 255 0 0
-1.6610 14.1000 1.6400 255 0 0
-1.6754 14.4000 1.7100 255 0 0
-1.6899 14.7000 1.7800 255 0 0
-1.7040 15.0000 1.8500 255 0 0
-1.7197 15.3000 1.9200 255 0 0
-1.7350 15.6000 1.9900 255 0 0
-1.7503 15.9000 2.0600 255 0 0
-1.7653 16.2000 2.1300 255 0 0
-1.7774 16.5000 2.2000 255 0 0
-1.7894 16.8000 2.1300 255 0 0
-1.7993 17.1000 2.0600 255 0 0
-1.8097 17.4000 1.9900 255 0 0
-1.8197 17.7000 1.9200 255 0 0
-1.8295 18.0000 1.8500 255 0 0
-1.8391 18.3000 1.7800 255 0 0
-1.8484 18.6000 1.7100 255 0 0
-1.8583 18.9000 1.6400 255 0 0
-1.8679 19.2000 1.5700 255 0 0
-1.8775 19.5000 1.5000 255 0 0
-1.8870 19.8000 1.4300 255 0 0
-1.8987 20.0880 1.3600 255 0 0
-1.9101 20.3759 1.2900 255 0 0
-1.9196 20.5721 1.2200 255 0 0
-1.9288 20.7682 1.1500 255 0 0
-1.9380 20.8761 1.0800 255 0 0
-1.9469 20.9840 1.0100 255 0 0
-1.8880 21.0536 0.9400 255 0 0
-1.8291 21.1232 0.8700 255 0 0
-1.7428 21.1725 0.8000 255 0 0
-1.6564 21.2218 0.8700 255 0 0
-1.5454 21.2544 0.9400 255 0 0
-1.4334 21.2895 1.0100 255 0 0
-1.3288 21.3276 1.0800 255 0 0
-1.2413 21.3694 1.1500 255 0 0
-1.1538 21.4113 1.2200 255 0 0
-1.0747 21.4583 1.2900 255 0 0
-0.9955 21.5052 1.3600 255 0 0
-0.9273 21.5590 1.4300 255 0 0
-0.8591 21.6129 1.5000 255 0 0
-0.8002 21.6750 1.5700 255 0 0
-0.7424 21.7388 1.6400 255 0 0
-0.6844 21.8096 1.7100 255 0 0
-0.6268 21.8829 1.7800 255 0 0
-0.5692 21.9631 1.8500 255 0 0
-0.5108 22.0450 1.9200 255 0 0
-0.4532 22.1278 1.9900 255 0 0
-0.3954 22.2116 2.0600 255 0 0
-0.3373 22.2965 2.1300 255 0 0
-0.2793 22.3814 2.2000 255 0 0
-0.2229 22.4671 2.1300 255 0 0
-0.1666 22.5528 2.0600 255 0 0
-0.1082 22.6330 1.9900 255 0 0
-0.0508 22.7092 1.9200 255 0 0
0.0066 22.7854 1.8500 255 0 0
0.0728 22.8411 1.7800 255 0 0
0.1389 22.8968 1.7100 255 0 0
0.2296 22.9426 1.6400 255 0 0
0.3204 22.9883 1.5700 255 0 0
0.4140 23.0242 1.5000 255 0 0
0.5077 23.0601 1.4300 255 0 0
0.6110 23.0751 1.3600 255 0 0
0.7143 23.0901 1.2900 255 0 0
0.8220 23.1051 1.2200 255 0 0
0.9297 23.1201 1.1500 255 0 0
1.0387 23.1351 1.0800 255 0 0
1.1476 23.1501 1.0100 255 0 0
1.2564 23.1651 0.9400 255 0 0
1.3653 23.1801 0.8700 255 0 0
1.4727 23.1951 0.8000 255 0 0
1.5802 23.2101 0.8700 255 0 0
1.6877 23.2251 0.9400 255 0 0
1.8010 23.2401 1.0100 255 0 0
1.9100 23.2551 1.0800 255 0 0
2.0175 23.2701 1.1500 255 0 0
0.4642 0.3000 1.2700 0 0 255
0.4274 0.6000 1.3400 0 0 255
0.3927 0.9000 1.4100 0 0 255
0.3581 1.2000 1.4800 0 0 255
0.3236 1.5000 1.5500 0 0 255
0.2898 1.8000 1.6200 0 0 255
0.2554 2.1000 1.6900 0 0 255
0.2229 2.4000 1.7600 0 0 255
0.1904 2.7000 1.8300 0 0 255
0.1587 3.0000 1.9000 0 0 255
0.1277 3.3000 1.9700 0 0 255
0.0966 3.6000 2.0400 0 0 255
0.0662 3.9000 2.1100 0 0 255
0.0380 4.2000 2.1800 0 0 255
0.0104 4.5000 2.2000 0 0 255
-0.0173 4.8000 2.1300 0 0 255
-0.0445 5.1000 2.0600 0 0 255
-0.0715 5.4000 1.9900 0 0 255
-0.0973 5.7000 1.9200 0 0 255
-0.1227 6.0000 1.8500 0 0 255
-0.1488 6.3000 1.7800 0 0 255
-0.1744 6.6000 1.7100 0 0 255
-0.1981 6.9000 1.6400 0 0 255
-0.2214 7.2000 1.5700 0 0 255
-0.2436 7.5000 1.5000 0 0 255
-0.2653 7.8000 1.4300 0 0 255
-0.2878 8.1000 1.3600 0 0 255
-0.3097 8.4000 1.2900 0 0 255
-0.3320 8.7000 1.2200 0 0 255
-0.3538 9.0000 1.1500 0 0 255
-0.3741 9.3000 1.0800 0 0 255
-0.3940 9.6000 1.0100 0 0 255
-0.4133 9.9000 0.9400 0 0 255
-0.4332 10.2000 0.8700 0 0 255
-0.4527 10.5000 0.8000 0 0 255
-0.4726 10.8000 0.8700 0 0 255
-0.4894 11.1000 0.9400 0 0 255
-0.5061 11.4000 1.0100 0 0 255
-0.5242 11.7000 1.0800 0 0 255
-0.5416 12.0000 1.1500 0 0 255
-0.5586 12.3000 1.2200 0 0 255
-0.5752 12.6000 1.2900 0 0 255
-0.5915 12.9000 1.3600 0 0 255
-0.6093 13.2000 1.4300 0 0 255
-0.6243 13.5000 1.5000 0 0 255
-0.6396 13.8000 1.5700 0 0 255
-0.6548 14.1000 1.6400 0 0 255
-0.6700 14.4000 1.7100 0 0 255
-0.6851 14.7000 1.7800 0 0 255
-0.6999 15.0000 1.8500 0 0 255
-0.7131 15.3000 1.9200 0 0 255
-0.7276 15.6000 1.9900 0 0 255
-0.7417 15.9000 2.0600 0 0 255
-0.7545 16.2000 2.1300 0 0 255
-0.7670 16.5000 2.2000 0 0 255
-0.7794 16.8000 2.1300 0 0 255
-0.7916 17.1000 2.0600 0 0 255
-0.8036 17.4000 1.9900 0 0 255
-0.8154 17.7000 1.9200 0 0 255
-0.8270 18.0000 1.8500 0 0 255
-0.8383 18.3000 1.7800 0 0 255
-0.8506 18.6000 1.7100 0 0 255
-0.8598 18.9000 1.6400 0 0 255
-0.8707 19.2000 1.5700 0 0 255
-0.8811 19.5000 1.5000 0 0 255
-0.8912 19.8000 1.4300 0 0 255
-0.9008 20.1000 1.3600 0 0 255
-0.9093 20.3714 1.2900 0 0 255
-0.9176 20.6428 1.2200 0 0 255
-0.9265 20.8027 1.1500 0 0 255
-0.9352 20.9627 1.0800 0 0 255
-0.8770 21.0497 1.0100 0 0 255
-0.8189 21.1366 0.9400 0 0 255
-0.7834 21.1990 0.8700 0 0 255
-0.7375 21.2528 0.8000 0 0 255
-0.6917 21.3066 0.8700 0 0 255
-0.6262 21.3462 0.9400 0 0 255
-0.5606 21.3858 1.0100 0 0 255
-0.5017 21.4323 1.0800 0 0 255
-0.4428 21.4788 1.1500 0 0 255
-0.3978 21.5347 1.2200 0 0 255
-0.3527 21.5906 1.2900 0 0 255
-0.2839 21.6543 1.3600 0 0 255
-0.2151 21.7179 1.4300 0 0 255
-0.1573 21.7902 1.5000 0 0 255
-0.0986 21.8709 1.5700 0 0 255
-0.0398 21.9516 1.6400 0 0 255
0.0177 22.0343 1.7100 0 0 255
0.0752 22.1170 1.7800 0 0 255
0.1323 22.2032 1.8500 0 0 255
0.1893 22.2895 1.9200 0 0 255
0.2055 22.3816 1.9900 0 0 255
0.2213 22.4737 2.0600 0 0 255
0.2796 22.5577 2.1300 0 0 255
0.3389 22.6397 2.2000 0 0 255
0.3983 22.7216 2.1300 0 0 255
0.4552 22.8004 2.0600 0 0 255
0.5121 22.8793 1.9900 0 0 255
0.5710 22.9484 1.9200 0 0 255
0.6298 23.0175 1.8500 0 0 255
0.6894 23.0780 1.7800 0 0 255
0.7490 23.1384 1.7100 0 0 255
0.8146 23.1903 1.6400 0 0 255
0.8802 23.2422 1.5700 0 0 255
0.9617 23.2785 1.5000 0 0 255
1.0706 23.2935 1.4300 0 0 255
1.1795 23.3085 1.3600 0 0 255
1.2894 23.3235 1.2900 0 0 255
1.3968 23.3385 1.2200 0 0 255
1.5045 23.3535 1.1500 0 0 255
1.6128 23.3685 1.0800 0 0 255
1.7219 23.3835 1.0100 0 0 255
1.8313 23.3985 0.9400 0 0 255
1.9425 23.4135 0.8700 0 0 255
2.0537 23.4285 0.8000 0 0 255
2.1484 23.4435 0.8700 0 0 255
2.2432 23.4585 0.9400 0 0 255
2.3542 23.4735 1.0100 0 0 255
2.4651 23.4885 1.0800 0 0 255
