ply
format ascii 1.0
element vertex 354
property float x
property float y
property float z
property uchar red
property uchar green
property uchar blue
end_header
-0.0348 0.3000 1.2700 0 255 0
-0.0690 0.6000 1.3400 0 255 0
-0.1055 0.9000 1.4100 0 255 0
-0.1412 1.2000 1.4800 0 255 0
-0.1757 1.5000 1.5500 0 255 0
-0.2095 1.8000 1.6200 0 255 0
-0.2433 2.1000 1.6900 0 255 0
-0.2765 2.4000 1.7600 0 255 0
-0.3101 2.7000 1.8300 0 255 0
-0.3431 3.0000 1.9000 0 255 0
-0.3739 3.3000 1.9700 0 255 0
-0.4049 3.6000 2.0400 0 255 0
-0.4336 3.9000 2.1100 0 255 0
-0.4613 4.2000 2.1800 0 255 0
-0.4907 4.5000 2.2000 0 255 0
-0.5184 4.8000 2.1300 0 255 0
-0.5439 5.1000 2.0600 0 255 0
-0.5717 5.4000 1.9900 0 255 0
-0.6000 5.7000 1.9200 0 255 0
-0.6259 6.0000 1.8500 0 255 0
-0.6511 6.3000 1.7800 0 255 0
-0.6775 6.6000 1.7100 0 255 0
-0.7027 6.9000 1.6400 0 255 0
-0.7269 7.2000 1.5700 0 255 0
-0.7507 7.5000 1.5000 0 255 0
-0.7722 7.8000 1.4300 0 255 0
-0.7942 8.1000 1.3600 0 255 0
-0.8160 8.4000 1.2900 0 255 0
-0.8371 8.7000 1.2200 0 255 0
-0.8576 9.0000 1.1500 0 255 0
-0.8796 9.3000 1.0800 0 255 0
-0.9004 9.6000 1.0100 0 255 0
-0.9186 9.9000 0.9400 0 255 0
-0.9373 10.2000 0.8700 0 255 0
-0.9567 10.5000 0.8000 0 255 0
-0.9753 10.8000 0.8700 0 255 0
-0.9951 11.1000 0.9400 0 255 0
-1.0131 11.4000 1.0100 0 255 0
-1.0292 11.7000 1.0800 0 255 0
-1.0463 12.0000 1.1500 0 255 0
-1.0626 12.3000 1.2200 0 255 0
-1.0786 12.6000 1.2900 0 255 0
-1.0928 12.9000 1.3600 0 255 0
-1.1066 13.2000 1.4300 0 255 0
-1.1237 13.5000 1.5000 0 255 0
-1.1405 13.8000 1.5700 0 255 0
-1.1556 14.1000 1.6400 0 255 0
-1.1703 14.4000 1.7100 0 255 0
-1.1858 14.7000 1.7800 0 255 0
-1.2010 15.0000 1.8500 0 255 0
-1.2141 15.3000 1.9200 0 255 0
-1.2270 15.6000 1.9900 0 255 0
-1.2412 15.9000 2.0600 0 255 0
-1.2552 16.2000 2.1300 0 255 0
-1.2685 16.5000 2.2000 0 255 0
-1.2815 16.8000 2.1300 0 255 0
-1.2946 17.1000 2.0600 0 255 0
-1.3074 17.4000 1.9900 0 255 0
-1.3190 17.7000 1.9200 0 255 0
-1.3303 18.0000 1.8500 0 255 0
-1.3411 18.3000 1.7800 0 255 0
-1.3516 18.6000 1.7100 0 255 0
-1.3617 18.9000 1.6400 0 255 0
-1.3716 19.2000 1.5700 0 255 0
-1.3815 19.5000 1.5000 0 255 0
-1.3905 19.8000 1.4300 0 255 0
-1.4011 20.0849 1.3600 0 255 0
-1.4116 20.3698 1.2900 0 255 0
-1.4205 20.5634 1.2200 0 255 0
-1.4295 20.7090 1.1500 0 255 0
-1.4370 20.8180 1.0800 0 255 0
-1.3793 20.9027 1.0100 0 255 0
-1.3217 20.9874 0.9400 0 255 0
-1.2634 21.0496 0.8700 0 255 0
-1.2080 21.1021 0.8000 0 255 0
-1.1474 21.1473 0.8700 0 255 0
-1.0868 21.1924 0.9400 0 255 0
-1.0194 21.2321 1.0100 0 255 0
-0.9611 21.2767 1.0800 0 255 0
-0.9025 21.3231 1.1500 0 255 0
-0.8439 21.3695 1.2200 0 255 0
-0.7961 21.4240 1.2900 0 255 0
-0.7483 21.4786 1.3600 0 255 0
-0.6906 21.5421 1.4300 0 255 0
-0.6330 21.6056 1.5000 0 255 0
-0.5758 21.6770 1.5700 0 255 0
-0.5181 21.7506 1.6400 0 255 0
-0.4609 21.8312 1.7100 0 255 0
-0.4037 21.9119 1.7800 0 255 0
-0.3451 21.9959 1.8500 0 255 0
-0.2865 22.0806 1.9200 0 255 0
-0.2286 22.1673 1.9900 0 255 0
-0.2134 22.2652 2.0600 0 255 0
-0.1993 22.3598 2.1300 0 255 0
-0.1415 22.4467 2.2000 0 255 0
-0.0835 22.5306 2.1300 0 255 0
-0.0258 22.6133 2.0600 0 255 0
0.0310 22.6924 1.9900 0 255 0
0.0879 22.7716 1.9200 0 255 0
0.1456 22.8408 1.8500 0 255 0
0.2040 22.9020 1.7800 0 255 0
0.2724 22.9553 1.7100 0 255 0
0.3630 23.0012 1.6400 0 255 0
0.4510 23.0409 1.5700 0 255 0
0.5417 23.0771 1.5000 0 255 0
0.6438 23.0921 1.4300 0 255 0
0.7479 23.1071 1.3600 0 255 0
0.8551 23.1221 1.2900 0 255 0
0.9635 23.1371 1.2200 0 255 0
1.0721 23.1521 1.1500 0 255 0
1.1815 23.1671 1.0800 0 255 0
1.2909 23.1821 1.0100 0 255 0
1.4002 23.1971 0.9400 0 255 0
1.5083 23.2121 0.8700 0 255 0
1.6160 23.2271 0.8000 0 255 0
1.7364 23.2421 0.8700 0 255 0
1.8567 23.2571 0.9400 0 255 0
1.9649 23.2721 1.0100 0 255 0
2.0720 23.2871 1.0800 0 255 0
-0.5361 0.3000 1.2700 255 0 0
-0.5739 0.6000 1.3400 255 0 0
-0.6109 0.9000 1.4100 255 0 0
-0.6463 1.2000 1.4800 255 0 0
-0.6810 1.5000 1.5500 255 0 0
-0.7164 1.8000 1.6200 255 0 0
-0.7510 2.1000 1.6900 255 0 0
-0.7838 2.4000 1.7600 255 0 0
-0.8158 2.7000 1.8300 255 0 0
-0.8462 3.0000 1.9000 255 0 0
-0.8768 3.3000 1.9700 255 0 0
-0.9066 3.6000 2.0400 255 0 0
-0.9343 3.9000 2.1100 255 0 0
-0.9627 4.2000 2.1800 255 0 0
-0.9911 4.5000 2.2000 255 0 0
-1.0189 4.8000 2.1300 255 0 0
-1.0459 5.1000 2.0600 255 0 0
-1.0724 5.4000 1.9900 255 0 0
-1.0973 5.7000 1.9200 255 0 0
-1.1218 6.0000 1.8500 255 0 0
-1.1469 6.3000 1.7800 255 0 0
-1.1711 6.6000 1.7100 255 0 0
-1.1948 6.9000 1.6400 255 0 0
-1.2181 7.2000 1.5700 255 0 0
-1.2416 7.5000 1.5000 255 0 0
-1.2645 7.8000 1.4300 255 0 0
-1.2868 8.1000 1.3600 255 0 0
-1.3087 8.4000 1.2900 255 0 0
-1.3288 8.7000 1.2200 255 0 0
-1.3484 9.0000 1.1500 255 0 0
-1.3686 9.3000 1.0800 255 0 0
-1.3884 9.6000 1.0100 255 0 0
-1.4075 9.9000 0.9400 255 0 0
-1.4262 10.2000 0.8700 255 0 0
-1.4466 10.5000 0.8000 255 0 0
-1.4665 10.8000 0.8700 255 0 0
-1.4849 11.1000 0.9400 255 0 0
-1.5034 11.4000 1.0100 255 0 0
-1.5216 11.7000 1.0800 255 0 0
-1.5402 12.0000 1.1500 255 0 0
-1.5584 12.3000 1.2200 255 0 0
-1.5737 12.6000 1.2900 255 0 0
-1.5888 12.9000 1.3600 255 0 0
-1.6051 13.2000 1.4300 255 0 0
-1.6211 13.5000 1.5000 255 0 0
-1.6357 13.8000 1.5700 255 0 0
-1.6514 14.1000 1.6400 255 0 0
-1.6659 14.4000 1.7100 255 0 0
-1.6804 14.7000 1.7800 255 0 0
-1.6956 15.0000 1.8500 255 0 0
-1.7106 15.3000 1.9200 255 0 0
-1.7243 15.6000 1.9900 255 0 0
-1.7364 15.9000 2.0600 255 0 0
-1.7493 16.2000 2.1300 255 0 0
-1.7618 16.5000 2.2000 255 0 0
-1.7736 16.8000 2.1300 255 0 0
-1.7851 17.1000 2.0600 255 0 0
-1.7959 17.4000 1.9900 255 0 0
-1.8064 17.7000 1.9200 255 0 0
-1.8186 18.0000 1.8500 255 0 0
-1.8304 18.3000 1.7800 255 0 0
-1.8427 18.6000 1.7100 255 0 0
-1.8548 18.9000 1.6400 255 0 0
-1.8664 19.2000 1.5700 255 0 0
-1.8779 19.5000 1.5000 255 0 0
-1.8888 19.8000 1.4300 255 0 0
-1.8996 20.1000 1.3600 255 0 0
-1.9085 20.3326 1.2900 255 0 0
-1.9172 20.5652 1.2200 255 0 0
-1.9245 20.7146 1.1500 255 0 0
-1.9317 20.8640 1.0800 255 0 0
-1.8726 20.9487 1.0100 255 0 0
-1.8134 21.0333 0.9400 255 0 0
-1.7552 21.0940 0.8700 255 0 0
-1.6969 21.1547 0.8000 255 0 0
-1.5986 21.1972 0.8700 255 0 0
-1.5004 21.2397 0.9400 255 0 0
-1.3908 21.2755 1.0100 255 0 0
-1.2812 21.3113 1.0800 255 0 0
-1.1955 21.3538 1.1500 255 0 0
-1.1098 21.3962 1.2200 255 0 0
-1.0507 21.4434 1.2900 255 0 0
-0.9916 21.4906 1.3600 255 0 0
-0.9227 21.5445 1.4300 255 0 0
-0.8537 21.5984 1.5000 255 0 0
-0.7965 21.6613 1.5700 255 0 0
-0.7393 21.7241 1.6400 255 0 0
-0.6807 21.7957 1.7100 255 0 0
-0.6222 21.8673 1.7800 255 0 0
-0.5649 21.9482 1.8500 255 0 0
-0.5073 22.0307 1.9200 255 0 0
-0.4484 22.1148 1.9900 255 0 0
-0.3896 22.1988 2.0600 255 0 0
-0.3315 22.2858 2.1300 255 0 0
-0.2735 22.3728 2.2000 255 0 0
-0.2133 22.4591 2.1300 255 0 0
-0.1531 22.5454 2.0600 255 0 0
-0.0954 22.6261 1.9900 255 0 0
-0.0372 22.7032 1.9200 255 0 0
0.0211 22.7803 1.8500 255 0 0
0.0840 22.8365 1.7800 255 0 0
0.1469 22.8927 1.7100 255 0 0
0.2277 22.9387 1.6400 255 0 0
0.3084 22.9847 1.5700 255 0 0
0.4022 23.0208 1.5000 255 0 0
0.4960 23.0570 1.4300 255 0 0
0.6050 23.0720 1.3600 255 0 0
0.7140 23.0870 1.2900 255 0 0
0.8217 23.1020 1.2200 255 0 0
0.9295 23.1170 1.1500 255 0 0
1.0384 23.1320 1.0800 255 0 0
1.1474 23.1470 1.0100 255 0 0
1.2566 23.1620 0.9400 255 0 0
1.3659 23.1770 0.8700 255 0 0
1.4746 23.1920 0.8000 255 0 0
1.5833 23.2070 0.8700 255 0 0
1.6922 23.2220 0.9400 255 0 0
1.8072 23.2370 1.0100 255 0 0
1.9165 23.2520 1.0800 255 0 0
2.0247 23.2670 1.1500 255 0 0
0.4630 0.3000 1.2700 0 0 255
0.4266 0.6000 1.3400 0 0 255
0.3913 0.9000 1.4100 0 0 255
0.3567 1.2000 1.4800 0 0 255
0.3229 1.5000 1.5500 0 0 255
0.2891 1.8000 1.6200 0 0 255
0.2559 2.1000 1.6900 0 0 255
0.2237 2.4000 1.7600 0 0 255
0.1923 2.7000 1.8300 0 0 255
0.1615 3.0000 1.9000 0 0 255
0.1293 3.3000 1.9700 0 0 255
0.0988 3.6000 2.0400 0 0 255
0.0684 3.9000 2.1100 0 0 255
0.0386 4.2000 2.1800 0 0 255
0.0106 4.5000 2.2000 0 0 255
-0.0170 4.8000 2.1300 0 0 255
-0.0441 5.1000 2.0600 0 0 255
-0.0705 5.4000 1.9900 0 0 255
-0.0953 5.7000 1.9200 0 0 255
-0.1222 6.0000 1.8500 0 0 255
-0.1472 6.3000 1.7800 0 0 255
-0.1718 6.6000 1.7100 0 0 255
-0.1960 6.9000 1.6400 0 0 255
-0.2197 7.2000 1.5700 0 0 255
-0.2436 7.5000 1.5000 0 0 255
-0.2671 7.8000 1.4300 0 0 255
-0.2897 8.1000 1.3600 0 0 255
-0.3111 8.4000 1.2900 0 0 255
-0.3316 8.7000 1.2200 0 0 255
-0.3527 9.0000 1.1500 0 0 255
-0.3720 9.3000 1.0800 0 0 255
-0.3909 9.6000 1.0100 0 0 255
-0.4117 9.9000 0.9400 0 0 255
-0.4321 10.2000 0.8700 0 0 255
-0.4512 10.5000 0.8000 0 0 255
-0.4700 10.8000 0.8700 0 0 255
-0.4870 11.1000 0.9400 0 0 255
-0.5052 11.4000 1.0100 0 0 255
-0.5231 11.7000 1.0800 0 0 255
-0.5399 12.0000 1.1500 0 0 255
-0.5569 12.3000 1.2200 0 0 255
-0.5736 12.6000 1.2900 0 0 255
-0.5892 12.9000 1.3600 0 0 255
-0.6051 13.2000 1.4300 0 0 255
-0.6205 13.5000 1.5000 0 0 255
-0.6360 13.8000 1.5700 0 0 255
-0.6507 14.1000 1.6400 0 0 255
-0.6657 14.4000 1.7100 0 0 255
-0.6800 14.7000 1.7800 0 0 255
-0.6946 15.0000 1.8500 0 0 255
-0.7088 15.3000 1.9200 0 0 255
-0.7232 15.6000 1.9900 0 0 255
-0.7365 15.9000 2.0600 0 0 255
-0.7507 16.2000 2.1300 0 0 255
-0.7632 16.5000 2.2000 0 0 255
-0.7761 16.8000 2.1300 0 0 255
-0.7888 17.1000 2.0600 0 0 255
-0.8032 17.4000 1.9900 0 0 255
-0.8154 17.7000 1.9200 0 0 255
-0.8274 18.0000 1.8500 0 0 255
-0.8378 18.3000 1.7800 0 0 255
-0.8496 18.6000 1.7100 0 0 255
-0.8604 18.9000 1.6400 0 0 255
-0.8713 19.2000 1.5700 0 0 255
-0.8821 19.5000 1.5000 0 0 255
-0.8917 19.8000 1.4300 0 0 255
-0.9012 20.1000 1.3600 0 0 255
-0.9109 20.3692 1.2900 0 0 255
-0.9204 20.6384 1.2200 0 0 255
-0.9294 20.7987 1.1500 0 0 255
-0.9382 20.9589 1.0800 0 0 255
-0.9069 21.0556 1.0100 0 0 255
-0.8762 21.1522 0.9400 0 0 255
-0.9372 21.2140 0.8700 0 0 255
-1.0125 21.2668 0.8000 0 0 255
-1.1052 21.3070 0.8700 0 0 255
-1.1979 21.3472 0.9400 0 0 255
-1.3056 21.3790 1.0100 0 0 255
-1.4133 21.4108 1.0800 0 0 255
-1.5057 21.4480 1.1500 0 0 255
-1.5790 21.4868 1.2200 0 0 255
-1.6454 21.5292 1.2900 0 0 255
-1.7117 21.5716 1.3600 0 0 255
-1.7697 21.6189 1.4300 0 0 255
-1.8277 21.6663 1.5000 0 0 255
-1.8787 21.7187 1.5700 0 0 255
-1.9297 21.7712 1.6400 0 0 255
-1.9733 21.8281 1.7100 0 0 255
-2.0169 21.8850 1.7800 0 0 255
-2.0554 21.9454 1.8500 0 0 255
-2.0940 22.0058 1.9200 0 0 255
-2.1322 22.0689 1.9900 0 0 255
-2.1703 22.1320 2.0600 0 0 255
-2.2070 22.2003 2.1300 0 0 255
-2.2437 22.2686 2.2000 0 0 255
-2.2807 22.3381 2.1300 0 0 255
-2.3178 22.4076 2.0600 0 0 255
-2.3560 22.4697 1.9900 0 0 255
-2.3943 22.5317 1.9200 0 0 255
-2.4733 22.5741 1.8500 0 0 255
-2.5524 22.6164 1.7800 0 0 255
-2.6546 22.6314 1.7100 0 0 255
-2.7567 22.6464 1.6400 0 0 255
-2.8697 22.6614 1.5700 0 0 255
-2.9827 22.6764 1.5000 0 0 255
-3.0913 22.6914 1.4300 0 0 255
-3.1999 22.7064 1.3600 0 0 255
-3.3119 22.7214 1.2900 0 0 255
-3.4240 22.7364 1.2200 0 0 255
-3.5335 22.7514 1.1500 0 0 255
-3.6431 22.7664 1.0800 0 0 255
-3.7517 22.7814 1.0100 0 0 255
-3.8603 22.7964 0.9400 0 0 255
-3.9680 22.8114 0.8700 0 0 255
-4.0767 22.8264 0.8000 0 0 255
